<?xml version="1.0" encoding="UTF-8"?>
<svg version="1.1" xmlns="http://www.w3.org/2000/svg" width="167" height="167">
<path d="M0 0 C3.00393277 2.00665127 5.46593142 4.43718962 8 7 C9.13115234 8.11181641 9.13115234 8.11181641 10.28515625 9.24609375 C12.20737835 11.14797487 14.11070855 13.06548615 16 15 C20.29597139 13.35009794 23.00517646 10.18257193 26.125 6.9375 C32.72878229 0.1199262 32.72878229 0.1199262 37.3125 -0.3125 C41.63730212 0.05400865 43.04850506 0.8798482 46 4 C48.30467798 7.98080742 48.16234696 10.60772117 47 15 C44.78515625 17.9921875 44.78515625 17.9921875 42.0625 20.875 C41.16660156 21.84179688 40.27070312 22.80859375 39.34765625 23.8046875 C37 26 37 26 35 26 C34.505 27.485 34.505 27.485 34 29 C33.34 29 32.68 29 32 29 C34.2129632 33.06403807 36.82016131 36.05345425 40.10546875 39.30078125 C40.5895369 39.7820195 41.07360504 40.26325775 41.57234192 40.75907898 C43.10606177 42.28168301 44.64661658 43.79714943 46.1875 45.3125 C47.234185 46.34914408 48.2804138 47.38624898 49.32617188 48.42382812 C51.87886 50.95457019 54.43772272 53.47896279 57 56 C61.3333996 52.34970903 65.4334322 48.63855872 69.32421875 44.515625 C72.25498316 41.86495696 74.50649752 41.05383663 78.4375 40.625 C82.58155564 41.06121638 84.09130272 42.09130272 87 45 C88.65421993 48.30843985 88.75240058 51.45117726 88 55 C86.05783758 58.06719553 83.59491265 60.47784191 81 63 C79.88818359 64.12921875 79.88818359 64.12921875 78.75390625 65.28125 C76.8529986 67.20587664 74.93524009 69.10999928 73 71 C76.90848119 75.69017742 80.97956146 80.05066053 85.36328125 84.30078125 C88.22322932 87.26993975 88.38909764 89.87407392 88.359375 93.9609375 C87.7567698 97.38006698 85.63213933 98.93189052 83 101 C79.98221063 102.50889469 78.37677363 102.50026276 75 102 C72.02483505 99.98377251 69.54314167 97.52896058 67 95 C66.24460937 94.25878906 65.48921875 93.51757812 64.7109375 92.75390625 C62.79111828 90.85104657 60.88858639 88.93379192 59 87 C55.17949552 88.58015042 52.74020274 91.00150753 49.83203125 93.90234375 C49.35174973 94.38071182 48.8714682 94.8590799 48.37663269 95.35194397 C47.36654855 96.36067151 46.3589681 97.37191163 45.35375977 98.38549805 C43.81418516 99.93580309 42.26420663 101.47512593 40.71289062 103.01367188 C39.73112872 103.996755 38.7499872 104.98045816 37.76953125 105.96484375 C36.87854736 106.8580835 35.98756348 107.75132324 35.06958008 108.67163086 C32.8140426 110.90136993 32.8140426 110.90136993 32 114 C32.556875 114.226875 33.11375 114.45375 33.6875 114.6875 C36.66159588 116.37550036 38.72008865 118.46676517 41 121 C41 121.66 41 122.32 41 123 C41.66 123 42.32 123 43 123 C46.19530445 125.91336582 47.32932352 128.26749366 47.5625 132.5 C47.39539611 136.08079758 47.02947189 136.95958141 44.8125 140 C41.88867272 142.07916606 40.56483292 143 37 143 C31.18317999 141.01461832 27.73268895 138.25477154 23.5625 133.8125 C23.02173828 133.25369141 22.48097656 132.69488281 21.92382812 132.11914062 C20.60645719 130.75513709 19.30185917 129.37881636 18 128 C13.3913946 129.8217546 10.45159708 133.47203725 7.15429688 137.01171875 C4.30911899 139.97197356 1.97941175 141.89054797 -2 143 C-5.97947614 142.91709425 -7.65056747 142.27178086 -10.8125 139.8125 C-13.32045693 136.58798395 -14.08158585 135.0792927 -14 131 C-11.2622732 124.40456726 -5.45985413 117.22992706 1 114 C0.03461161 108.73584784 -3.85031682 106.00321418 -7.60742188 102.50976562 C-10.6936217 99.55856361 -12.86404765 97.24903696 -14 93 C-13.91932039 89.12737883 -13.22054675 87.31703595 -11 84.125 C-7.41658866 81.5867503 -5.38139603 81.38984589 -1.09375 81.6328125 C1.61933313 82.10861439 3.1729022 82.93458509 5 85 C5 85.66 5 86.32 5 87 C5.556875 87.226875 6.11375 87.45375 6.6875 87.6875 C9.66159588 89.37550036 11.72008865 91.46676517 14 94 C14 94.66 14 95.32 14 96 C17.61121681 96.37739473 17.61121681 96.37739473 20.6328125 94.63671875 C21.12523438 93.99347656 21.61765625 93.35023437 22.125 92.6875 C25.11236559 89.01225417 28.27184906 85.59132424 31.625 82.25 C32.52476563 81.34765625 33.42453125 80.4453125 34.3515625 79.515625 C36.80428455 77.18590081 39.32448957 75.06700084 42 73 C41.53711397 68.71499792 38.81361557 66.42914587 35.87109375 63.578125 C35.36199966 63.07327576 34.85290558 62.56842651 34.3283844 62.04827881 C32.7050088 60.44166021 31.071503 58.84580178 29.4375 57.25 C28.3332995 56.16085016 27.22977555 55.07101395 26.12695312 53.98046875 C23.4257471 51.3122924 20.71540937 48.65371709 18 46 C14.13779427 47.77415632 12.04553118 49.960175 9.25 53.1875 C6.34809841 56.48136334 3.44184977 59.62253648 0.0625 62.4375 C-4.50112502 66.27131454 -8.38723866 70.69960241 -12.375 75.109375 C-14.57047968 77.52701631 -16.78215499 79.91264637 -19.0625 82.25 C-19.58972656 82.79140625 -20.11695313 83.3328125 -20.66015625 83.890625 C-22 85 -22 85 -24 85 C-24.33 85.99 -24.66 86.98 -25 88 C-25.66 88 -26.32 88 -27 88 C-27.33 88.99 -27.66 89.98 -28 91 C-28.66 91 -29.32 91 -30 91 C-30.33 91.99 -30.66 92.98 -31 94 C-31.66 94 -32.32 94 -33 94 C-33.33 94.99 -33.66 95.98 -34 97 C-34.66 97 -35.32 97 -36 97 C-36 97.66 -36 98.32 -36 99 C-38.65835429 101.03285917 -40.61713921 101.94297818 -43.9375 102.4375 C-47.89346816 101.87236169 -49.95372709 100.56163859 -53 98 C-54.63551787 95.22673058 -55.08926714 93.75825999 -54.71327209 90.56445312 C-53.93622576 87.77071016 -53.09911767 86.52100486 -51.15014648 84.40625 C-50.19856155 83.37177734 -50.19856155 83.37177734 -49.22775269 82.31640625 C-44.7420748 77.65222052 -40.18481507 73.06383112 -35.59765625 68.5 C-34.50884896 67.41306197 -33.42026534 66.32589985 -32.33189392 65.23852539 C-29.49175111 62.40216777 -26.6486164 59.56882836 -23.80480957 56.73614502 C-20.89342109 53.83505747 -17.98492533 50.93107287 -15.07617188 48.02734375 C-9.3869133 42.34875182 -3.69448501 36.67335084 2 31 C1.06875982 29.88236055 0.13296482 28.76851542 -0.8046875 27.65625 C-1.32530762 27.03556641 -1.84592773 26.41488281 -2.38232422 25.77539062 C-3.87601281 24.13607528 -5.36742654 22.84196492 -7.125 21.5 C-10.65996044 18.42612135 -12.14313866 16.30791831 -14 12 C-14.16335493 7.26270713 -13.54475 5.60960119 -10.375 2.0625 C-6.30869015 -0.42246713 -4.67465204 -0.96716939 0 0 Z " fill="#3A57E8" transform="translate(61,5)"/>
</svg>
